<svg xmlns="http://www.w3.org/2000/svg" viewBox="0 0 64 64" role="img" aria-labelledby="title desc">
  <title id="title">Reflect favicon</title>
  <desc id="desc">Dark rounded square with mirrored teal arcs and a central signal dot.</desc>
  <defs>
    <linearGradient id="bg" x1="0" y1="0" x2="1" y2="1">
      <stop offset="0%" stop-color="#08161e"/>
      <stop offset="100%" stop-color="#123543"/>
    </linearGradient>
    <linearGradient id="glow" x1="0" y1="0" x2="1" y2="1">
      <stop offset="0%" stop-color="#8ef6d6"/>
      <stop offset="100%" stop-color="#54b8ff"/>
    </linearGradient>
  </defs>
  <rect width="64" height="64" rx="16" fill="url(#bg)"/>
  <circle cx="32" cy="32" r="5" fill="url(#glow)"/>
  <path d="M24 20C18.2 23.4 15 27.3 15 32s3.2 8.6 9 12" fill="none" stroke="url(#glow)" stroke-linecap="round" stroke-width="4.5"/>
  <path d="M40 20c5.8 3.4 9 7.3 9 12s-3.2 8.6-9 12" fill="none" stroke="url(#glow)" stroke-linecap="round" stroke-width="4.5"/>
  <path d="M28 25.5c-2.6 1.7-4 3.8-4 6.5s1.4 4.8 4 6.5" fill="none" stroke="url(#glow)" stroke-linecap="round" stroke-opacity=".75" stroke-width="3.5"/>
  <path d="M36 25.5c2.6 1.7 4 3.8 4 6.5s-1.4 4.8-4 6.5" fill="none" stroke="url(#glow)" stroke-linecap="round" stroke-opacity=".75" stroke-width="3.5"/>
</svg>
